<mxfile host="app.diagrams.net" modified="2024-05-20T07:18:52.134Z" agent="Mozilla/5.0 (Macintosh; Intel Mac OS X 10_15_7) AppleWebKit/537.36 (KHTML, like Gecko) Chrome/124.0.0.0 Safari/537.36" etag="mvMvEuLjpvoZqOjEBHXw" version="24.4.4" type="google" pages="6">
  <diagram id="gtzthXd4EJIeTMfbnbjA" name="Set / update company administrator">
    <mxGraphModel grid="1" page="1" gridSize="10" guides="1" tooltips="1" connect="1" arrows="1" fold="1" pageScale="1" pageWidth="827" pageHeight="1169" math="0" shadow="0">
      <root>
        <mxCell id="0" />
        <mxCell id="1" parent="0" />
        <mxCell id="deU0wYsKDkV6LDLQA2I7-3" value="Set / update company administrator" style="text;html=1;align=center;verticalAlign=middle;whiteSpace=wrap;rounded=0;" vertex="1" parent="1">
          <mxGeometry x="303" y="20" width="221" height="30" as="geometry" />
        </mxCell>
        <mxCell id="deU0wYsKDkV6LDLQA2I7-6" style="edgeStyle=orthogonalEdgeStyle;rounded=0;orthogonalLoop=1;jettySize=auto;html=1;exitX=0.5;exitY=1;exitDx=0;exitDy=0;entryX=0.5;entryY=0;entryDx=0;entryDy=0;" edge="1" parent="1" source="deU0wYsKDkV6LDLQA2I7-4" target="deU0wYsKDkV6LDLQA2I7-5">
          <mxGeometry relative="1" as="geometry" />
        </mxCell>
        <mxCell id="deU0wYsKDkV6LDLQA2I7-4" value="C&amp;amp;C Administrator logs on to portal" style="rounded=1;whiteSpace=wrap;html=1;fillColor=#f8cecc;strokeColor=#b85450;" vertex="1" parent="1">
          <mxGeometry x="369" y="80" width="120" height="60" as="geometry" />
        </mxCell>
        <mxCell id="deU0wYsKDkV6LDLQA2I7-21" style="edgeStyle=orthogonalEdgeStyle;rounded=0;orthogonalLoop=1;jettySize=auto;html=1;exitX=0.5;exitY=1;exitDx=0;exitDy=0;entryX=0.5;entryY=0;entryDx=0;entryDy=0;" edge="1" parent="1" source="deU0wYsKDkV6LDLQA2I7-5" target="CkAvRNQchIYo00pN4iJ--1">
          <mxGeometry relative="1" as="geometry" />
        </mxCell>
        <mxCell id="deU0wYsKDkV6LDLQA2I7-5" value="Company &amp;gt; View &amp;gt; Company Administrator" style="rounded=1;whiteSpace=wrap;html=1;fillColor=#f8cecc;strokeColor=#b85450;" vertex="1" parent="1">
          <mxGeometry x="369" y="190" width="120" height="60" as="geometry" />
        </mxCell>
        <mxCell id="deU0wYsKDkV6LDLQA2I7-18" style="edgeStyle=orthogonalEdgeStyle;rounded=0;orthogonalLoop=1;jettySize=auto;html=1;exitX=0;exitY=0.5;exitDx=0;exitDy=0;entryX=0.5;entryY=0;entryDx=0;entryDy=0;" edge="1" parent="1" source="CkAvRNQchIYo00pN4iJ--1" target="wv5s8uMX9qC48CNCAFM6-3">
          <mxGeometry relative="1" as="geometry">
            <mxPoint x="170" y="460" as="targetPoint" />
          </mxGeometry>
        </mxCell>
        <mxCell id="wv5s8uMX9qC48CNCAFM6-1" value="YES" style="edgeLabel;html=1;align=center;verticalAlign=middle;resizable=0;points=[];" vertex="1" connectable="0" parent="deU0wYsKDkV6LDLQA2I7-18">
          <mxGeometry x="-0.7039" y="3" relative="1" as="geometry">
            <mxPoint y="-3" as="offset" />
          </mxGeometry>
        </mxCell>
        <mxCell id="deU0wYsKDkV6LDLQA2I7-26" style="edgeStyle=orthogonalEdgeStyle;rounded=0;orthogonalLoop=1;jettySize=auto;html=1;exitX=0.5;exitY=1;exitDx=0;exitDy=0;entryX=0.5;entryY=0;entryDx=0;entryDy=0;" edge="1" parent="1" source="CkAvRNQchIYo00pN4iJ--1" target="Tl9IVlc3QO_r15z2-n4i-2">
          <mxGeometry relative="1" as="geometry">
            <mxPoint x="429" y="470" as="targetPoint" />
          </mxGeometry>
        </mxCell>
        <mxCell id="wv5s8uMX9qC48CNCAFM6-2" value="NO" style="edgeLabel;html=1;align=center;verticalAlign=middle;resizable=0;points=[];" vertex="1" connectable="0" parent="deU0wYsKDkV6LDLQA2I7-26">
          <mxGeometry x="-0.0885" y="-1" relative="1" as="geometry">
            <mxPoint as="offset" />
          </mxGeometry>
        </mxCell>
        <mxCell id="deU0wYsKDkV6LDLQA2I7-30" style="edgeStyle=orthogonalEdgeStyle;rounded=0;orthogonalLoop=1;jettySize=auto;html=1;exitX=0.5;exitY=1;exitDx=0;exitDy=0;entryX=0.5;entryY=0;entryDx=0;entryDy=0;" edge="1" parent="1" source="wv5s8uMX9qC48CNCAFM6-3" target="EQ6VQUxzSt7Cq1Av_1QI-1">
          <mxGeometry relative="1" as="geometry">
            <mxPoint x="429" y="530" as="sourcePoint" />
          </mxGeometry>
        </mxCell>
        <mxCell id="EQ6VQUxzSt7Cq1Av_1QI-1" value="END" style="ellipse;whiteSpace=wrap;html=1;aspect=fixed;fillColor=none;" vertex="1" parent="1">
          <mxGeometry x="140" y="690" width="60" height="60" as="geometry" />
        </mxCell>
        <mxCell id="8gvsCeAz3GKFWIUDPZgw-1" value="Legend" style="shape=table;startSize=30;container=1;collapsible=0;childLayout=tableLayout;fontSize=16;align=left;verticalAlign=top;fillColor=none;strokeColor=none;fontColor=#4D4D4D;fontStyle=1;spacingLeft=6;spacing=0;resizable=0;" vertex="1" parent="1">
          <mxGeometry x="620" y="40" width="180" height="180" as="geometry" />
        </mxCell>
        <mxCell id="8gvsCeAz3GKFWIUDPZgw-2" value="" style="shape=tableRow;horizontal=0;startSize=0;swimlaneHead=0;swimlaneBody=0;strokeColor=inherit;top=0;left=0;bottom=0;right=0;collapsible=0;dropTarget=0;fillColor=none;points=[[0,0.5],[1,0.5]];portConstraint=eastwest;fontSize=12;" vertex="1" parent="8gvsCeAz3GKFWIUDPZgw-1">
          <mxGeometry y="30" width="180" height="30" as="geometry" />
        </mxCell>
        <mxCell id="8gvsCeAz3GKFWIUDPZgw-3" value="Action by customer" style="shape=partialRectangle;html=1;whiteSpace=wrap;connectable=0;strokeColor=#82b366;overflow=hidden;fillColor=#d5e8d4;top=0;left=0;bottom=0;right=0;pointerEvents=1;fontSize=12;align=left;spacingLeft=10;spacingRight=4;" vertex="1" parent="8gvsCeAz3GKFWIUDPZgw-2">
          <mxGeometry width="180" height="30" as="geometry">
            <mxRectangle width="180" height="30" as="alternateBounds" />
          </mxGeometry>
        </mxCell>
        <mxCell id="8gvsCeAz3GKFWIUDPZgw-4" value="" style="shape=tableRow;horizontal=0;startSize=0;swimlaneHead=0;swimlaneBody=0;strokeColor=inherit;top=0;left=0;bottom=0;right=0;collapsible=0;dropTarget=0;fillColor=none;points=[[0,0.5],[1,0.5]];portConstraint=eastwest;fontSize=12;" vertex="1" parent="8gvsCeAz3GKFWIUDPZgw-1">
          <mxGeometry y="60" width="180" height="30" as="geometry" />
        </mxCell>
        <mxCell id="8gvsCeAz3GKFWIUDPZgw-5" value="Action by CCB" style="shape=partialRectangle;html=1;whiteSpace=wrap;connectable=0;strokeColor=#d6b656;overflow=hidden;fillColor=#fff2cc;top=0;left=0;bottom=0;right=0;pointerEvents=1;fontSize=12;align=left;spacingLeft=10;spacingRight=4;" vertex="1" parent="8gvsCeAz3GKFWIUDPZgw-4">
          <mxGeometry width="180" height="30" as="geometry">
            <mxRectangle width="180" height="30" as="alternateBounds" />
          </mxGeometry>
        </mxCell>
        <mxCell id="ZpH9L1p6Hp_D9zu2yp8G-10" value="" style="shape=tableRow;horizontal=0;startSize=0;swimlaneHead=0;swimlaneBody=0;strokeColor=#6c8ebf;top=0;left=0;bottom=0;right=0;collapsible=0;dropTarget=0;fillColor=#dae8fc;points=[[0,0.5],[1,0.5]];portConstraint=eastwest;fontSize=12;" vertex="1" parent="8gvsCeAz3GKFWIUDPZgw-1">
          <mxGeometry y="90" width="180" height="30" as="geometry" />
        </mxCell>
        <mxCell id="ZpH9L1p6Hp_D9zu2yp8G-11" value="Action by Corparate Admin on Privileges Portal" style="shape=partialRectangle;html=1;whiteSpace=wrap;connectable=0;strokeColor=#6c8ebf;overflow=hidden;fillColor=#dae8fc;top=0;left=0;bottom=0;right=0;pointerEvents=1;fontSize=12;align=left;spacingLeft=10;spacingRight=4;" vertex="1" parent="ZpH9L1p6Hp_D9zu2yp8G-10">
          <mxGeometry width="180" height="30" as="geometry">
            <mxRectangle width="180" height="30" as="alternateBounds" />
          </mxGeometry>
        </mxCell>
        <mxCell id="8gvsCeAz3GKFWIUDPZgw-6" value="" style="shape=tableRow;horizontal=0;startSize=0;swimlaneHead=0;swimlaneBody=0;strokeColor=inherit;top=0;left=0;bottom=0;right=0;collapsible=0;dropTarget=0;fillColor=none;points=[[0,0.5],[1,0.5]];portConstraint=eastwest;fontSize=12;" vertex="1" parent="8gvsCeAz3GKFWIUDPZgw-1">
          <mxGeometry y="120" width="180" height="30" as="geometry" />
        </mxCell>
        <mxCell id="8gvsCeAz3GKFWIUDPZgw-7" value="Action by CCB on Privileges Portal" style="shape=partialRectangle;html=1;whiteSpace=wrap;connectable=0;strokeColor=#b85450;overflow=hidden;fillColor=#f8cecc;top=0;left=0;bottom=0;right=0;pointerEvents=1;fontSize=12;align=left;spacingLeft=10;spacingRight=4;" vertex="1" parent="8gvsCeAz3GKFWIUDPZgw-6">
          <mxGeometry width="180" height="30" as="geometry">
            <mxRectangle width="180" height="30" as="alternateBounds" />
          </mxGeometry>
        </mxCell>
        <mxCell id="8gvsCeAz3GKFWIUDPZgw-8" value="" style="shape=tableRow;horizontal=0;startSize=0;swimlaneHead=0;swimlaneBody=0;strokeColor=inherit;top=0;left=0;bottom=0;right=0;collapsible=0;dropTarget=0;fillColor=none;points=[[0,0.5],[1,0.5]];portConstraint=eastwest;fontSize=12;" vertex="1" parent="8gvsCeAz3GKFWIUDPZgw-1">
          <mxGeometry y="150" width="180" height="30" as="geometry" />
        </mxCell>
        <mxCell id="8gvsCeAz3GKFWIUDPZgw-9" value="Automated process" style="shape=partialRectangle;html=1;whiteSpace=wrap;connectable=0;strokeColor=#d79b00;overflow=hidden;fillColor=#ffe6cc;top=0;left=0;bottom=0;right=0;pointerEvents=1;fontSize=12;align=left;spacingLeft=10;spacingRight=4;" vertex="1" parent="8gvsCeAz3GKFWIUDPZgw-8">
          <mxGeometry width="180" height="30" as="geometry">
            <mxRectangle width="180" height="30" as="alternateBounds" />
          </mxGeometry>
        </mxCell>
        <mxCell id="CkAvRNQchIYo00pN4iJ--1" value="Existing&amp;nbsp;&lt;div&gt;Corporate?&lt;/div&gt;" style="rhombus;whiteSpace=wrap;html=1;strokeWidth=1;fillWeight=-1;hachureGap=8;fillStyle=solid;fillColor=none;rounded=0;shadow=0;" vertex="1" parent="1">
          <mxGeometry x="369" y="280" width="120" height="60" as="geometry" />
        </mxCell>
        <mxCell id="wv5s8uMX9qC48CNCAFM6-3" value="Set account as Admin&amp;nbsp;" style="shape=parallelogram;perimeter=parallelogramPerimeter;whiteSpace=wrap;html=1;fixedSize=1;fillColor=#f8cecc;strokeColor=#b85450;" vertex="1" parent="1">
          <mxGeometry x="110" y="530" width="120" height="60" as="geometry" />
        </mxCell>
        <mxCell id="Tl9IVlc3QO_r15z2-n4i-4" style="edgeStyle=orthogonalEdgeStyle;rounded=0;orthogonalLoop=1;jettySize=auto;html=1;" edge="1" parent="1" source="Tl9IVlc3QO_r15z2-n4i-2" target="Tl9IVlc3QO_r15z2-n4i-3">
          <mxGeometry relative="1" as="geometry" />
        </mxCell>
        <mxCell id="Tl9IVlc3QO_r15z2-n4i-10" value="YES" style="edgeLabel;html=1;align=center;verticalAlign=middle;resizable=0;points=[];" connectable="0" vertex="1" parent="Tl9IVlc3QO_r15z2-n4i-4">
          <mxGeometry x="-0.6152" y="2" relative="1" as="geometry">
            <mxPoint as="offset" />
          </mxGeometry>
        </mxCell>
        <mxCell id="Tl9IVlc3QO_r15z2-n4i-7" style="edgeStyle=orthogonalEdgeStyle;rounded=0;orthogonalLoop=1;jettySize=auto;html=1;" edge="1" parent="1" source="Tl9IVlc3QO_r15z2-n4i-2" target="Tl9IVlc3QO_r15z2-n4i-6">
          <mxGeometry relative="1" as="geometry" />
        </mxCell>
        <mxCell id="Tl9IVlc3QO_r15z2-n4i-9" value="NO" style="edgeLabel;html=1;align=center;verticalAlign=middle;resizable=0;points=[];" connectable="0" vertex="1" parent="Tl9IVlc3QO_r15z2-n4i-7">
          <mxGeometry x="-0.3" y="-1" relative="1" as="geometry">
            <mxPoint as="offset" />
          </mxGeometry>
        </mxCell>
        <mxCell id="Tl9IVlc3QO_r15z2-n4i-2" value="Create Account?" style="rhombus;whiteSpace=wrap;html=1;strokeWidth=1;fillWeight=-1;hachureGap=8;fillStyle=solid;fillColor=none;rounded=0;shadow=0;" vertex="1" parent="1">
          <mxGeometry x="364" y="390" width="130" height="60" as="geometry" />
        </mxCell>
        <mxCell id="Tl9IVlc3QO_r15z2-n4i-3" value="Create Account" style="shape=parallelogram;perimeter=parallelogramPerimeter;whiteSpace=wrap;html=1;fixedSize=1;fillColor=#f8cecc;strokeColor=#b85450;" vertex="1" parent="1">
          <mxGeometry x="540" y="585" width="120" height="60" as="geometry" />
        </mxCell>
        <mxCell id="Tl9IVlc3QO_r15z2-n4i-5" style="edgeStyle=orthogonalEdgeStyle;rounded=0;orthogonalLoop=1;jettySize=auto;html=1;entryX=1.008;entryY=0.5;entryDx=0;entryDy=0;entryPerimeter=0;" edge="1" parent="1" source="Tl9IVlc3QO_r15z2-n4i-3" target="wv5s8uMX9qC48CNCAFM6-3">
          <mxGeometry relative="1" as="geometry">
            <Array as="points">
              <mxPoint x="231" y="610" />
            </Array>
          </mxGeometry>
        </mxCell>
        <mxCell id="Tl9IVlc3QO_r15z2-n4i-8" style="edgeStyle=orthogonalEdgeStyle;rounded=0;orthogonalLoop=1;jettySize=auto;html=1;entryX=1;entryY=0.25;entryDx=0;entryDy=0;" edge="1" parent="1" source="Tl9IVlc3QO_r15z2-n4i-6" target="wv5s8uMX9qC48CNCAFM6-3">
          <mxGeometry relative="1" as="geometry" />
        </mxCell>
        <mxCell id="Tl9IVlc3QO_r15z2-n4i-6" value="Change Account to Corporate" style="shape=parallelogram;perimeter=parallelogramPerimeter;whiteSpace=wrap;html=1;fixedSize=1;fillColor=#f8cecc;strokeColor=#b85450;" vertex="1" parent="1">
          <mxGeometry x="369" y="520" width="120" height="60" as="geometry" />
        </mxCell>
      </root>
    </mxGraphModel>
  </diagram>
  <diagram name="Transfer membership flow" id="0firJl-Jb7fyf-cvfPJ1">
    <mxGraphModel grid="1" page="1" gridSize="10" guides="1" tooltips="1" connect="1" arrows="1" fold="1" pageScale="1" pageWidth="827" pageHeight="1169" math="0" shadow="0">
      <root>
        <mxCell id="0" />
        <mxCell id="1" parent="0" />
        <mxCell id="g9ZoDTmVSZnorGRBOkEd-1" value="Transfer Rank" style="text;html=1;align=center;verticalAlign=middle;whiteSpace=wrap;rounded=0;" vertex="1" parent="1">
          <mxGeometry x="349" y="20" width="130" height="30" as="geometry" />
        </mxCell>
        <mxCell id="g9ZoDTmVSZnorGRBOkEd-29" style="edgeStyle=orthogonalEdgeStyle;rounded=0;orthogonalLoop=1;jettySize=auto;html=1;exitX=0.5;exitY=1;exitDx=0;exitDy=0;entryX=0.5;entryY=0;entryDx=0;entryDy=0;" edge="1" parent="1" source="1TdSfkQpqo_Aqp_S1iwk-6" target="1TdSfkQpqo_Aqp_S1iwk-8">
          <mxGeometry relative="1" as="geometry">
            <mxPoint x="414" y="280" as="targetPoint" />
            <mxPoint x="414" y="240" as="sourcePoint" />
          </mxGeometry>
        </mxCell>
        <mxCell id="g9ZoDTmVSZnorGRBOkEd-16" value="NO" style="edgeStyle=orthogonalEdgeStyle;rounded=0;orthogonalLoop=1;jettySize=auto;html=1;exitX=0;exitY=0.5;exitDx=0;exitDy=0;entryX=0.992;entryY=0.65;entryDx=0;entryDy=0;entryPerimeter=0;" edge="1" parent="1" source="nQ3hHFa5D7U035YbL2UK-59" target="g9ZoDTmVSZnorGRBOkEd-20">
          <mxGeometry relative="1" as="geometry">
            <mxPoint x="339" y="575" as="sourcePoint" />
          </mxGeometry>
        </mxCell>
        <mxCell id="g9ZoDTmVSZnorGRBOkEd-17" style="edgeStyle=orthogonalEdgeStyle;rounded=0;orthogonalLoop=1;jettySize=auto;html=1;exitX=1;exitY=0.5;exitDx=0;exitDy=0;entryX=0.5;entryY=0;entryDx=0;entryDy=0;" edge="1" parent="1" source="nQ3hHFa5D7U035YbL2UK-59" target="g9ZoDTmVSZnorGRBOkEd-23">
          <mxGeometry relative="1" as="geometry">
            <mxPoint x="489" y="575" as="sourcePoint" />
          </mxGeometry>
        </mxCell>
        <mxCell id="R06rU8UWJoxHdaHS_W55-3" value="YES" style="edgeLabel;html=1;align=center;verticalAlign=middle;resizable=0;points=[];" vertex="1" connectable="0" parent="g9ZoDTmVSZnorGRBOkEd-17">
          <mxGeometry x="-0.464" relative="1" as="geometry">
            <mxPoint as="offset" />
          </mxGeometry>
        </mxCell>
        <mxCell id="xjObWYC6ghjmzPeHlQRk-3" style="edgeStyle=orthogonalEdgeStyle;rounded=0;orthogonalLoop=1;jettySize=auto;html=1;entryX=0.5;entryY=0;entryDx=0;entryDy=0;" edge="1" parent="1" source="g9ZoDTmVSZnorGRBOkEd-20" target="xjObWYC6ghjmzPeHlQRk-2">
          <mxGeometry relative="1" as="geometry" />
        </mxCell>
        <mxCell id="g9ZoDTmVSZnorGRBOkEd-20" value="Select User" style="rounded=1;whiteSpace=wrap;html=1;fillColor=#ffe6cc;strokeColor=#d79b00;" vertex="1" parent="1">
          <mxGeometry x="160" y="500" width="120" height="60" as="geometry" />
        </mxCell>
        <mxCell id="rJKsuyHPPVdvfbx5oHOP-2" style="edgeStyle=orthogonalEdgeStyle;rounded=0;orthogonalLoop=1;jettySize=auto;html=1;exitX=0.5;exitY=1;exitDx=0;exitDy=0;entryX=1;entryY=0.5;entryDx=0;entryDy=0;" edge="1" parent="1" source="g9ZoDTmVSZnorGRBOkEd-23" target="kpAqPJHImu0m1QnEYaRq-1">
          <mxGeometry relative="1" as="geometry" />
        </mxCell>
        <mxCell id="g9ZoDTmVSZnorGRBOkEd-23" value="Prompt transfer error" style="shape=parallelogram;perimeter=parallelogramPerimeter;whiteSpace=wrap;html=1;fixedSize=1;fillColor=#ffe6cc;strokeColor=#d79b00;" vertex="1" parent="1">
          <mxGeometry x="520" y="610" width="160" height="60" as="geometry" />
        </mxCell>
        <mxCell id="g9ZoDTmVSZnorGRBOkEd-51" style="edgeStyle=orthogonalEdgeStyle;rounded=0;orthogonalLoop=1;jettySize=auto;html=1;exitX=0.5;exitY=1;exitDx=0;exitDy=0;entryX=0.5;entryY=0;entryDx=0;entryDy=0;" edge="1" parent="1" source="g9ZoDTmVSZnorGRBOkEd-48" target="nQ3hHFa5D7U035YbL2UK-59">
          <mxGeometry relative="1" as="geometry">
            <mxPoint x="413.9950000000001" y="525" as="targetPoint" />
          </mxGeometry>
        </mxCell>
        <mxCell id="QyDHTJ80nNfaXj5CBTqH-2" style="edgeStyle=orthogonalEdgeStyle;rounded=0;orthogonalLoop=1;jettySize=auto;html=1;exitX=0.5;exitY=1;exitDx=0;exitDy=0;entryX=0.5;entryY=0;entryDx=0;entryDy=0;" edge="1" parent="1" source="g9ZoDTmVSZnorGRBOkEd-48" target="nQ3hHFa5D7U035YbL2UK-59">
          <mxGeometry relative="1" as="geometry" />
        </mxCell>
        <mxCell id="g9ZoDTmVSZnorGRBOkEd-48" value="Transfer rank" style="rounded=1;whiteSpace=wrap;html=1;fillColor=#dae8fc;strokeColor=#6c8ebf;" vertex="1" parent="1">
          <mxGeometry x="354.1" y="400" width="120" height="60" as="geometry" />
        </mxCell>
        <mxCell id="1TdSfkQpqo_Aqp_S1iwk-6" value="&lt;span style=&quot;color: rgb(0, 0, 0); font-family: Helvetica; font-size: 12px; font-style: normal; font-variant-ligatures: normal; font-variant-caps: normal; font-weight: 400; letter-spacing: normal; orphans: 2; text-align: center; text-indent: 0px; text-transform: none; widows: 2; word-spacing: 0px; -webkit-text-stroke-width: 0px; white-space: normal; text-decoration-thickness: initial; text-decoration-style: initial; text-decoration-color: initial; float: none; display: inline !important;&quot;&gt;Administrator logs on to portal&lt;/span&gt;" style="rounded=1;whiteSpace=wrap;html=1;strokeWidth=1;fillWeight=4;hachureGap=8;hachureAngle=45;fillColor=#dae8fc;strokeColor=#6c8ebf;glass=0;" vertex="1" parent="1">
          <mxGeometry x="354" y="70" width="120" height="60" as="geometry" />
        </mxCell>
        <mxCell id="nQ3hHFa5D7U035YbL2UK-61" style="edgeStyle=orthogonalEdgeStyle;rounded=0;orthogonalLoop=1;jettySize=auto;html=1;exitX=0;exitY=0.5;exitDx=0;exitDy=0;" edge="1" parent="1" source="1TdSfkQpqo_Aqp_S1iwk-8" target="nQ3hHFa5D7U035YbL2UK-60">
          <mxGeometry relative="1" as="geometry" />
        </mxCell>
        <mxCell id="VEP12IdWQHjevYyqgko7-4" style="edgeStyle=orthogonalEdgeStyle;rounded=0;orthogonalLoop=1;jettySize=auto;html=1;exitX=0.5;exitY=1;exitDx=0;exitDy=0;entryX=0.5;entryY=0;entryDx=0;entryDy=0;" edge="1" parent="1" source="1TdSfkQpqo_Aqp_S1iwk-8" target="VEP12IdWQHjevYyqgko7-2">
          <mxGeometry relative="1" as="geometry" />
        </mxCell>
        <mxCell id="1TdSfkQpqo_Aqp_S1iwk-8" value="Select user" style="rounded=1;whiteSpace=wrap;html=1;strokeWidth=1;fillWeight=4;hachureGap=8;hachureAngle=45;fillColor=#dae8fc;strokeColor=#6c8ebf;glass=0;" vertex="1" parent="1">
          <mxGeometry x="354" y="170" width="120" height="60" as="geometry" />
        </mxCell>
        <mxCell id="kpAqPJHImu0m1QnEYaRq-1" value="END" style="ellipse;whiteSpace=wrap;html=1;aspect=fixed;fillColor=none;" vertex="1" parent="1">
          <mxGeometry x="190" y="880" width="60" height="60" as="geometry" />
        </mxCell>
        <mxCell id="nQ3hHFa5D7U035YbL2UK-1" value="Legend" style="shape=table;startSize=30;container=1;collapsible=0;childLayout=tableLayout;fontSize=16;align=left;verticalAlign=top;fillColor=none;strokeColor=none;fontColor=#4D4D4D;fontStyle=1;spacingLeft=6;spacing=0;resizable=0;" vertex="1" parent="1">
          <mxGeometry x="620" y="40" width="180" height="180" as="geometry" />
        </mxCell>
        <mxCell id="nQ3hHFa5D7U035YbL2UK-2" value="" style="shape=tableRow;horizontal=0;startSize=0;swimlaneHead=0;swimlaneBody=0;strokeColor=inherit;top=0;left=0;bottom=0;right=0;collapsible=0;dropTarget=0;fillColor=none;points=[[0,0.5],[1,0.5]];portConstraint=eastwest;fontSize=12;" vertex="1" parent="nQ3hHFa5D7U035YbL2UK-1">
          <mxGeometry y="30" width="180" height="30" as="geometry" />
        </mxCell>
        <mxCell id="nQ3hHFa5D7U035YbL2UK-3" value="Action by customer" style="shape=partialRectangle;html=1;whiteSpace=wrap;connectable=0;strokeColor=#82b366;overflow=hidden;fillColor=#d5e8d4;top=0;left=0;bottom=0;right=0;pointerEvents=1;fontSize=12;align=left;spacingLeft=10;spacingRight=4;" vertex="1" parent="nQ3hHFa5D7U035YbL2UK-2">
          <mxGeometry width="180" height="30" as="geometry">
            <mxRectangle width="180" height="30" as="alternateBounds" />
          </mxGeometry>
        </mxCell>
        <mxCell id="nQ3hHFa5D7U035YbL2UK-4" value="" style="shape=tableRow;horizontal=0;startSize=0;swimlaneHead=0;swimlaneBody=0;strokeColor=inherit;top=0;left=0;bottom=0;right=0;collapsible=0;dropTarget=0;fillColor=none;points=[[0,0.5],[1,0.5]];portConstraint=eastwest;fontSize=12;" vertex="1" parent="nQ3hHFa5D7U035YbL2UK-1">
          <mxGeometry y="60" width="180" height="30" as="geometry" />
        </mxCell>
        <mxCell id="nQ3hHFa5D7U035YbL2UK-5" value="Action by CCB" style="shape=partialRectangle;html=1;whiteSpace=wrap;connectable=0;strokeColor=#d6b656;overflow=hidden;fillColor=#fff2cc;top=0;left=0;bottom=0;right=0;pointerEvents=1;fontSize=12;align=left;spacingLeft=10;spacingRight=4;" vertex="1" parent="nQ3hHFa5D7U035YbL2UK-4">
          <mxGeometry width="180" height="30" as="geometry">
            <mxRectangle width="180" height="30" as="alternateBounds" />
          </mxGeometry>
        </mxCell>
        <mxCell id="nQ3hHFa5D7U035YbL2UK-6" value="" style="shape=tableRow;horizontal=0;startSize=0;swimlaneHead=0;swimlaneBody=0;strokeColor=#6c8ebf;top=0;left=0;bottom=0;right=0;collapsible=0;dropTarget=0;fillColor=#dae8fc;points=[[0,0.5],[1,0.5]];portConstraint=eastwest;fontSize=12;" vertex="1" parent="nQ3hHFa5D7U035YbL2UK-1">
          <mxGeometry y="90" width="180" height="30" as="geometry" />
        </mxCell>
        <mxCell id="nQ3hHFa5D7U035YbL2UK-7" value="Action by Corparate Admin on Privileges Portal" style="shape=partialRectangle;html=1;whiteSpace=wrap;connectable=0;strokeColor=#6c8ebf;overflow=hidden;fillColor=#dae8fc;top=0;left=0;bottom=0;right=0;pointerEvents=1;fontSize=12;align=left;spacingLeft=10;spacingRight=4;" vertex="1" parent="nQ3hHFa5D7U035YbL2UK-6">
          <mxGeometry width="180" height="30" as="geometry">
            <mxRectangle width="180" height="30" as="alternateBounds" />
          </mxGeometry>
        </mxCell>
        <mxCell id="nQ3hHFa5D7U035YbL2UK-8" value="" style="shape=tableRow;horizontal=0;startSize=0;swimlaneHead=0;swimlaneBody=0;strokeColor=inherit;top=0;left=0;bottom=0;right=0;collapsible=0;dropTarget=0;fillColor=none;points=[[0,0.5],[1,0.5]];portConstraint=eastwest;fontSize=12;" vertex="1" parent="nQ3hHFa5D7U035YbL2UK-1">
          <mxGeometry y="120" width="180" height="30" as="geometry" />
        </mxCell>
        <mxCell id="nQ3hHFa5D7U035YbL2UK-9" value="Action by CCB on Privileges Portal" style="shape=partialRectangle;html=1;whiteSpace=wrap;connectable=0;strokeColor=#b85450;overflow=hidden;fillColor=#f8cecc;top=0;left=0;bottom=0;right=0;pointerEvents=1;fontSize=12;align=left;spacingLeft=10;spacingRight=4;" vertex="1" parent="nQ3hHFa5D7U035YbL2UK-8">
          <mxGeometry width="180" height="30" as="geometry">
            <mxRectangle width="180" height="30" as="alternateBounds" />
          </mxGeometry>
        </mxCell>
        <mxCell id="nQ3hHFa5D7U035YbL2UK-10" value="" style="shape=tableRow;horizontal=0;startSize=0;swimlaneHead=0;swimlaneBody=0;strokeColor=inherit;top=0;left=0;bottom=0;right=0;collapsible=0;dropTarget=0;fillColor=none;points=[[0,0.5],[1,0.5]];portConstraint=eastwest;fontSize=12;" vertex="1" parent="nQ3hHFa5D7U035YbL2UK-1">
          <mxGeometry y="150" width="180" height="30" as="geometry" />
        </mxCell>
        <mxCell id="nQ3hHFa5D7U035YbL2UK-11" value="Automated process" style="shape=partialRectangle;html=1;whiteSpace=wrap;connectable=0;strokeColor=#d79b00;overflow=hidden;fillColor=#ffe6cc;top=0;left=0;bottom=0;right=0;pointerEvents=1;fontSize=12;align=left;spacingLeft=10;spacingRight=4;" vertex="1" parent="nQ3hHFa5D7U035YbL2UK-10">
          <mxGeometry width="180" height="30" as="geometry">
            <mxRectangle width="180" height="30" as="alternateBounds" />
          </mxGeometry>
        </mxCell>
        <mxCell id="nQ3hHFa5D7U035YbL2UK-59" value="Rank Expired?" style="rhombus;whiteSpace=wrap;html=1;strokeWidth=1;fillWeight=-1;hachureGap=8;fillStyle=solid;fillColor=none;rounded=0;shadow=0;" vertex="1" parent="1">
          <mxGeometry x="354" y="510" width="120" height="60" as="geometry" />
        </mxCell>
        <mxCell id="nQ3hHFa5D7U035YbL2UK-60" value="Available statuses includes:&lt;div&gt;- Active&lt;/div&gt;&lt;div&gt;- Not active&lt;/div&gt;&lt;div&gt;- Suspended&lt;/div&gt;&lt;div&gt;- Pending&lt;/div&gt;&lt;div&gt;-Terminated&lt;/div&gt;" style="shape=note;whiteSpace=wrap;html=1;backgroundOutline=1;darkOpacity=0.05;" vertex="1" parent="1">
          <mxGeometry x="170" y="110" width="120" height="180" as="geometry" />
        </mxCell>
        <mxCell id="VEP12IdWQHjevYyqgko7-3" style="edgeStyle=orthogonalEdgeStyle;rounded=0;orthogonalLoop=1;jettySize=auto;html=1;exitX=0.5;exitY=1;exitDx=0;exitDy=0;" edge="1" parent="1" source="VEP12IdWQHjevYyqgko7-2" target="g9ZoDTmVSZnorGRBOkEd-48">
          <mxGeometry relative="1" as="geometry" />
        </mxCell>
        <mxCell id="R06rU8UWJoxHdaHS_W55-1" value="YES" style="edgeLabel;html=1;align=center;verticalAlign=middle;resizable=0;points=[];" vertex="1" connectable="0" parent="VEP12IdWQHjevYyqgko7-3">
          <mxGeometry x="-0.2867" y="3" relative="1" as="geometry">
            <mxPoint as="offset" />
          </mxGeometry>
        </mxCell>
        <mxCell id="VEP12IdWQHjevYyqgko7-6" style="edgeStyle=orthogonalEdgeStyle;rounded=0;orthogonalLoop=1;jettySize=auto;html=1;exitX=0;exitY=0.5;exitDx=0;exitDy=0;entryX=0;entryY=0.5;entryDx=0;entryDy=0;" edge="1" parent="1" source="VEP12IdWQHjevYyqgko7-2" target="kpAqPJHImu0m1QnEYaRq-1">
          <mxGeometry relative="1" as="geometry">
            <Array as="points">
              <mxPoint x="80" y="300" />
              <mxPoint x="80" y="910" />
            </Array>
          </mxGeometry>
        </mxCell>
        <mxCell id="R06rU8UWJoxHdaHS_W55-2" value="NO" style="edgeLabel;html=1;align=center;verticalAlign=middle;resizable=0;points=[];" vertex="1" connectable="0" parent="VEP12IdWQHjevYyqgko7-6">
          <mxGeometry x="-0.8295" y="1" relative="1" as="geometry">
            <mxPoint as="offset" />
          </mxGeometry>
        </mxCell>
        <mxCell id="VEP12IdWQHjevYyqgko7-2" value="User&amp;nbsp;&lt;div&gt;terminated?&lt;/div&gt;" style="rhombus;whiteSpace=wrap;html=1;strokeWidth=1;fillWeight=-1;hachureGap=8;fillStyle=solid;fillColor=none;rounded=0;shadow=0;" vertex="1" parent="1">
          <mxGeometry x="354" y="270" width="120" height="60" as="geometry" />
        </mxCell>
        <mxCell id="xjObWYC6ghjmzPeHlQRk-8" style="edgeStyle=orthogonalEdgeStyle;rounded=0;orthogonalLoop=1;jettySize=auto;html=1;entryX=0.5;entryY=0;entryDx=0;entryDy=0;" edge="1" parent="1" source="xjObWYC6ghjmzPeHlQRk-1" target="kpAqPJHImu0m1QnEYaRq-1">
          <mxGeometry relative="1" as="geometry" />
        </mxCell>
        <mxCell id="xjObWYC6ghjmzPeHlQRk-1" value="Transfer with existing date range" style="rounded=1;whiteSpace=wrap;html=1;fillColor=#ffe6cc;strokeColor=#d79b00;" vertex="1" parent="1">
          <mxGeometry x="160" y="720" width="120" height="60" as="geometry" />
        </mxCell>
        <mxCell id="xjObWYC6ghjmzPeHlQRk-4" style="edgeStyle=orthogonalEdgeStyle;rounded=0;orthogonalLoop=1;jettySize=auto;html=1;entryX=0.5;entryY=0;entryDx=0;entryDy=0;" edge="1" parent="1" source="xjObWYC6ghjmzPeHlQRk-2" target="xjObWYC6ghjmzPeHlQRk-1">
          <mxGeometry relative="1" as="geometry" />
        </mxCell>
        <mxCell id="xjObWYC6ghjmzPeHlQRk-6" value="YES" style="edgeLabel;html=1;align=center;verticalAlign=middle;resizable=0;points=[];" connectable="0" vertex="1" parent="xjObWYC6ghjmzPeHlQRk-4">
          <mxGeometry x="-0.16" y="-1" relative="1" as="geometry">
            <mxPoint as="offset" />
          </mxGeometry>
        </mxCell>
        <mxCell id="xjObWYC6ghjmzPeHlQRk-5" style="edgeStyle=orthogonalEdgeStyle;rounded=0;orthogonalLoop=1;jettySize=auto;html=1;entryX=0;entryY=0.5;entryDx=0;entryDy=0;exitX=0;exitY=0.5;exitDx=0;exitDy=0;" edge="1" parent="1" source="xjObWYC6ghjmzPeHlQRk-2" target="g9ZoDTmVSZnorGRBOkEd-20">
          <mxGeometry relative="1" as="geometry">
            <mxPoint x="110" y="520" as="targetPoint" />
            <Array as="points">
              <mxPoint x="130" y="640" />
              <mxPoint x="130" y="530" />
            </Array>
          </mxGeometry>
        </mxCell>
        <mxCell id="xjObWYC6ghjmzPeHlQRk-7" value="NO" style="edgeLabel;html=1;align=center;verticalAlign=middle;resizable=0;points=[];" connectable="0" vertex="1" parent="xjObWYC6ghjmzPeHlQRk-5">
          <mxGeometry x="-0.0235" y="-1" relative="1" as="geometry">
            <mxPoint as="offset" />
          </mxGeometry>
        </mxCell>
        <mxCell id="xjObWYC6ghjmzPeHlQRk-2" value="Confirm Transfer" style="rhombus;whiteSpace=wrap;html=1;strokeWidth=1;fillWeight=-1;hachureGap=8;fillStyle=solid;fillColor=none;rounded=0;shadow=0;" vertex="1" parent="1">
          <mxGeometry x="160" y="610" width="120" height="60" as="geometry" />
        </mxCell>
      </root>
    </mxGraphModel>
  </diagram>
  <diagram id="A4V4ZHOSYo6hMgHBV0ib" name="Assign users flow">
    <mxGraphModel grid="1" page="1" gridSize="10" guides="1" tooltips="1" connect="1" arrows="1" fold="1" pageScale="1" pageWidth="827" pageHeight="1169" math="0" shadow="0">
      <root>
        <mxCell id="0" />
        <mxCell id="1" parent="0" />
        <mxCell id="v9bhKf-hG4ZNF4olaz6h-1" value="Assign users" style="text;html=1;align=center;verticalAlign=middle;whiteSpace=wrap;rounded=0;" vertex="1" parent="1">
          <mxGeometry x="373.5" y="20" width="129" height="30" as="geometry" />
        </mxCell>
        <mxCell id="v9bhKf-hG4ZNF4olaz6h-4" style="edgeStyle=orthogonalEdgeStyle;rounded=0;orthogonalLoop=1;jettySize=auto;html=1;exitX=0.5;exitY=1;exitDx=0;exitDy=0;entryX=0.5;entryY=0;entryDx=0;entryDy=0;" edge="1" parent="1" source="v9bhKf-hG4ZNF4olaz6h-5" target="v9bhKf-hG4ZNF4olaz6h-7">
          <mxGeometry relative="1" as="geometry" />
        </mxCell>
        <mxCell id="v9bhKf-hG4ZNF4olaz6h-5" value="Create company" style="rounded=1;whiteSpace=wrap;html=1;fillColor=#f8cecc;strokeColor=#b85450;" vertex="1" parent="1">
          <mxGeometry x="378" y="70" width="120" height="60" as="geometry" />
        </mxCell>
        <mxCell id="v9bhKf-hG4ZNF4olaz6h-6" style="edgeStyle=orthogonalEdgeStyle;rounded=0;orthogonalLoop=1;jettySize=auto;html=1;exitX=0.5;exitY=1;exitDx=0;exitDy=0;entryX=0.5;entryY=0;entryDx=0;entryDy=0;" edge="1" parent="1" source="v9bhKf-hG4ZNF4olaz6h-7" target="cvvHMU_AeEZ4onAoMMCy-1">
          <mxGeometry relative="1" as="geometry" />
        </mxCell>
        <mxCell id="v9bhKf-hG4ZNF4olaz6h-7" value="Assign users" style="rounded=1;whiteSpace=wrap;html=1;fillColor=#dae8fc;strokeColor=#6c8ebf;" vertex="1" parent="1">
          <mxGeometry x="378" y="170" width="120" height="60" as="geometry" />
        </mxCell>
        <mxCell id="v9bhKf-hG4ZNF4olaz6h-8" style="edgeStyle=orthogonalEdgeStyle;rounded=0;orthogonalLoop=1;jettySize=auto;html=1;exitX=0;exitY=0.5;exitDx=0;exitDy=0;entryX=0.5;entryY=0;entryDx=0;entryDy=0;" edge="1" parent="1" source="cvvHMU_AeEZ4onAoMMCy-1" target="v9bhKf-hG4ZNF4olaz6h-12">
          <mxGeometry relative="1" as="geometry" />
        </mxCell>
        <mxCell id="CHgSpj9ZRB79auyhogRP-2" value="NO" style="edgeLabel;html=1;align=center;verticalAlign=middle;resizable=0;points=[];" vertex="1" connectable="0" parent="v9bhKf-hG4ZNF4olaz6h-8">
          <mxGeometry x="-0.3571" y="-1" relative="1" as="geometry">
            <mxPoint as="offset" />
          </mxGeometry>
        </mxCell>
        <mxCell id="v9bhKf-hG4ZNF4olaz6h-9" style="edgeStyle=orthogonalEdgeStyle;rounded=0;orthogonalLoop=1;jettySize=auto;html=1;exitX=1;exitY=0.5;exitDx=0;exitDy=0;entryX=0.5;entryY=0;entryDx=0;entryDy=0;" edge="1" parent="1" source="cvvHMU_AeEZ4onAoMMCy-1" target="v9bhKf-hG4ZNF4olaz6h-19">
          <mxGeometry relative="1" as="geometry" />
        </mxCell>
        <mxCell id="CHgSpj9ZRB79auyhogRP-1" value="YES" style="edgeLabel;html=1;align=center;verticalAlign=middle;resizable=0;points=[];" vertex="1" connectable="0" parent="v9bhKf-hG4ZNF4olaz6h-9">
          <mxGeometry x="-0.5568" y="3" relative="1" as="geometry">
            <mxPoint as="offset" />
          </mxGeometry>
        </mxCell>
        <mxCell id="v9bhKf-hG4ZNF4olaz6h-11" style="edgeStyle=orthogonalEdgeStyle;rounded=0;orthogonalLoop=1;jettySize=auto;html=1;exitX=0.5;exitY=1;exitDx=0;exitDy=0;entryX=0.5;entryY=0;entryDx=0;entryDy=0;" edge="1" parent="1" source="v9bhKf-hG4ZNF4olaz6h-12" target="v9bhKf-hG4ZNF4olaz6h-14">
          <mxGeometry relative="1" as="geometry" />
        </mxCell>
        <mxCell id="v9bhKf-hG4ZNF4olaz6h-12" value="Create blank user account with e-mail only." style="rounded=1;whiteSpace=wrap;html=1;fillColor=#dae8fc;strokeColor=#6c8ebf;" vertex="1" parent="1">
          <mxGeometry x="180" y="350" width="120" height="60" as="geometry" />
        </mxCell>
        <mxCell id="WYfgiTH0aUF-GfyNkdUM-1" style="edgeStyle=orthogonalEdgeStyle;rounded=0;orthogonalLoop=1;jettySize=auto;html=1;exitX=0.5;exitY=1;exitDx=0;exitDy=0;entryX=0.5;entryY=0;entryDx=0;entryDy=0;" edge="1" parent="1" source="v9bhKf-hG4ZNF4olaz6h-14" target="v9bhKf-hG4ZNF4olaz6h-16">
          <mxGeometry relative="1" as="geometry" />
        </mxCell>
        <mxCell id="v9bhKf-hG4ZNF4olaz6h-14" value="Set user as &quot;Not active&quot; in the system." style="rounded=1;whiteSpace=wrap;html=1;fillColor=#ffe6cc;strokeColor=#d79b00;" vertex="1" parent="1">
          <mxGeometry x="180" y="450" width="120" height="60" as="geometry" />
        </mxCell>
        <mxCell id="v9bhKf-hG4ZNF4olaz6h-15" style="edgeStyle=orthogonalEdgeStyle;rounded=0;orthogonalLoop=1;jettySize=auto;html=1;exitX=0.5;exitY=1;exitDx=0;exitDy=0;entryX=0;entryY=0.5;entryDx=0;entryDy=0;" edge="1" parent="1" source="v9bhKf-hG4ZNF4olaz6h-16" target="v9bhKf-hG4ZNF4olaz6h-21">
          <mxGeometry relative="1" as="geometry" />
        </mxCell>
        <mxCell id="v9bhKf-hG4ZNF4olaz6h-16" value="User is successfully assigned." style="rounded=1;whiteSpace=wrap;html=1;fillColor=#ffe6cc;strokeColor=#d79b00;" vertex="1" parent="1">
          <mxGeometry x="180" y="560" width="120" height="60" as="geometry" />
        </mxCell>
        <mxCell id="v9bhKf-hG4ZNF4olaz6h-18" style="edgeStyle=orthogonalEdgeStyle;rounded=0;orthogonalLoop=1;jettySize=auto;html=1;exitX=0.5;exitY=1;exitDx=0;exitDy=0;entryX=1;entryY=0.5;entryDx=0;entryDy=0;" edge="1" parent="1" source="v9bhKf-hG4ZNF4olaz6h-19" target="v9bhKf-hG4ZNF4olaz6h-21">
          <mxGeometry relative="1" as="geometry" />
        </mxCell>
        <mxCell id="v9bhKf-hG4ZNF4olaz6h-19" value="User is successfully assigned." style="rounded=1;whiteSpace=wrap;html=1;fillColor=#ffe6cc;strokeColor=#d79b00;" vertex="1" parent="1">
          <mxGeometry x="580" y="350" width="120" height="60" as="geometry" />
        </mxCell>
        <mxCell id="v9bhKf-hG4ZNF4olaz6h-21" value="END" style="ellipse;whiteSpace=wrap;html=1;aspect=fixed;fillColor=none;" vertex="1" parent="1">
          <mxGeometry x="408" y="660" width="60" height="60" as="geometry" />
        </mxCell>
        <mxCell id="cvvHMU_AeEZ4onAoMMCy-1" value="Existing User?" style="rhombus;whiteSpace=wrap;html=1;strokeWidth=1;fillWeight=-1;hachureGap=8;fillStyle=solid;fillColor=none;rounded=0;shadow=0;" vertex="1" parent="1">
          <mxGeometry x="378" y="270" width="120" height="60" as="geometry" />
        </mxCell>
        <mxCell id="0HdEvxV0ZTS9NuYm2NXH-1" value="Legend" style="shape=table;startSize=30;container=1;collapsible=0;childLayout=tableLayout;fontSize=16;align=left;verticalAlign=top;fillColor=none;strokeColor=none;fontColor=#4D4D4D;fontStyle=1;spacingLeft=6;spacing=0;resizable=0;" vertex="1" parent="1">
          <mxGeometry x="620" y="40" width="180" height="180" as="geometry" />
        </mxCell>
        <mxCell id="0HdEvxV0ZTS9NuYm2NXH-2" value="" style="shape=tableRow;horizontal=0;startSize=0;swimlaneHead=0;swimlaneBody=0;strokeColor=inherit;top=0;left=0;bottom=0;right=0;collapsible=0;dropTarget=0;fillColor=none;points=[[0,0.5],[1,0.5]];portConstraint=eastwest;fontSize=12;" vertex="1" parent="0HdEvxV0ZTS9NuYm2NXH-1">
          <mxGeometry y="30" width="180" height="30" as="geometry" />
        </mxCell>
        <mxCell id="0HdEvxV0ZTS9NuYm2NXH-3" value="Action by customer" style="shape=partialRectangle;html=1;whiteSpace=wrap;connectable=0;strokeColor=#82b366;overflow=hidden;fillColor=#d5e8d4;top=0;left=0;bottom=0;right=0;pointerEvents=1;fontSize=12;align=left;spacingLeft=10;spacingRight=4;" vertex="1" parent="0HdEvxV0ZTS9NuYm2NXH-2">
          <mxGeometry width="180" height="30" as="geometry">
            <mxRectangle width="180" height="30" as="alternateBounds" />
          </mxGeometry>
        </mxCell>
        <mxCell id="0HdEvxV0ZTS9NuYm2NXH-4" value="" style="shape=tableRow;horizontal=0;startSize=0;swimlaneHead=0;swimlaneBody=0;strokeColor=inherit;top=0;left=0;bottom=0;right=0;collapsible=0;dropTarget=0;fillColor=none;points=[[0,0.5],[1,0.5]];portConstraint=eastwest;fontSize=12;" vertex="1" parent="0HdEvxV0ZTS9NuYm2NXH-1">
          <mxGeometry y="60" width="180" height="30" as="geometry" />
        </mxCell>
        <mxCell id="0HdEvxV0ZTS9NuYm2NXH-5" value="Action by CCB" style="shape=partialRectangle;html=1;whiteSpace=wrap;connectable=0;strokeColor=#d6b656;overflow=hidden;fillColor=#fff2cc;top=0;left=0;bottom=0;right=0;pointerEvents=1;fontSize=12;align=left;spacingLeft=10;spacingRight=4;" vertex="1" parent="0HdEvxV0ZTS9NuYm2NXH-4">
          <mxGeometry width="180" height="30" as="geometry">
            <mxRectangle width="180" height="30" as="alternateBounds" />
          </mxGeometry>
        </mxCell>
        <mxCell id="0HdEvxV0ZTS9NuYm2NXH-6" value="" style="shape=tableRow;horizontal=0;startSize=0;swimlaneHead=0;swimlaneBody=0;strokeColor=#6c8ebf;top=0;left=0;bottom=0;right=0;collapsible=0;dropTarget=0;fillColor=#dae8fc;points=[[0,0.5],[1,0.5]];portConstraint=eastwest;fontSize=12;" vertex="1" parent="0HdEvxV0ZTS9NuYm2NXH-1">
          <mxGeometry y="90" width="180" height="30" as="geometry" />
        </mxCell>
        <mxCell id="0HdEvxV0ZTS9NuYm2NXH-7" value="Action by Corparate Admin on Privileges Portal" style="shape=partialRectangle;html=1;whiteSpace=wrap;connectable=0;strokeColor=#6c8ebf;overflow=hidden;fillColor=#dae8fc;top=0;left=0;bottom=0;right=0;pointerEvents=1;fontSize=12;align=left;spacingLeft=10;spacingRight=4;" vertex="1" parent="0HdEvxV0ZTS9NuYm2NXH-6">
          <mxGeometry width="180" height="30" as="geometry">
            <mxRectangle width="180" height="30" as="alternateBounds" />
          </mxGeometry>
        </mxCell>
        <mxCell id="0HdEvxV0ZTS9NuYm2NXH-8" value="" style="shape=tableRow;horizontal=0;startSize=0;swimlaneHead=0;swimlaneBody=0;strokeColor=inherit;top=0;left=0;bottom=0;right=0;collapsible=0;dropTarget=0;fillColor=none;points=[[0,0.5],[1,0.5]];portConstraint=eastwest;fontSize=12;" vertex="1" parent="0HdEvxV0ZTS9NuYm2NXH-1">
          <mxGeometry y="120" width="180" height="30" as="geometry" />
        </mxCell>
        <mxCell id="0HdEvxV0ZTS9NuYm2NXH-9" value="Action by CCB on Privileges Portal" style="shape=partialRectangle;html=1;whiteSpace=wrap;connectable=0;strokeColor=#b85450;overflow=hidden;fillColor=#f8cecc;top=0;left=0;bottom=0;right=0;pointerEvents=1;fontSize=12;align=left;spacingLeft=10;spacingRight=4;" vertex="1" parent="0HdEvxV0ZTS9NuYm2NXH-8">
          <mxGeometry width="180" height="30" as="geometry">
            <mxRectangle width="180" height="30" as="alternateBounds" />
          </mxGeometry>
        </mxCell>
        <mxCell id="0HdEvxV0ZTS9NuYm2NXH-10" value="" style="shape=tableRow;horizontal=0;startSize=0;swimlaneHead=0;swimlaneBody=0;strokeColor=inherit;top=0;left=0;bottom=0;right=0;collapsible=0;dropTarget=0;fillColor=none;points=[[0,0.5],[1,0.5]];portConstraint=eastwest;fontSize=12;" vertex="1" parent="0HdEvxV0ZTS9NuYm2NXH-1">
          <mxGeometry y="150" width="180" height="30" as="geometry" />
        </mxCell>
        <mxCell id="0HdEvxV0ZTS9NuYm2NXH-11" value="Automated process" style="shape=partialRectangle;html=1;whiteSpace=wrap;connectable=0;strokeColor=#d79b00;overflow=hidden;fillColor=#ffe6cc;top=0;left=0;bottom=0;right=0;pointerEvents=1;fontSize=12;align=left;spacingLeft=10;spacingRight=4;" vertex="1" parent="0HdEvxV0ZTS9NuYm2NXH-10">
          <mxGeometry width="180" height="30" as="geometry">
            <mxRectangle width="180" height="30" as="alternateBounds" />
          </mxGeometry>
        </mxCell>
      </root>
    </mxGraphModel>
  </diagram>
  <diagram id="ApGmKCs1DAK33DWBTdKe" name="Dashboard re-assignable resources flow">
    <mxGraphModel grid="1" page="1" gridSize="10" guides="1" tooltips="1" connect="1" arrows="1" fold="1" pageScale="1" pageWidth="827" pageHeight="1169" math="0" shadow="0">
      <root>
        <mxCell id="0" />
        <mxCell id="1" parent="0" />
        <mxCell id="1nXdHdjy70m2k_z6gIux-1" value="Dashboard re-assignable resources" style="text;html=1;align=center;verticalAlign=middle;whiteSpace=wrap;rounded=0;" vertex="1" parent="1">
          <mxGeometry x="314" y="20" width="200" height="30" as="geometry" />
        </mxCell>
        <mxCell id="1nXdHdjy70m2k_z6gIux-4" style="edgeStyle=orthogonalEdgeStyle;rounded=0;orthogonalLoop=1;jettySize=auto;html=1;exitX=0.5;exitY=1;exitDx=0;exitDy=0;entryX=0.5;entryY=0;entryDx=0;entryDy=0;" edge="1" parent="1" source="1nXdHdjy70m2k_z6gIux-5" target="1nXdHdjy70m2k_z6gIux-7">
          <mxGeometry relative="1" as="geometry" />
        </mxCell>
        <mxCell id="1nXdHdjy70m2k_z6gIux-5" value="Administrator logs on to portal" style="rounded=1;whiteSpace=wrap;html=1;fillColor=#dae8fc;strokeColor=#6c8ebf;" vertex="1" parent="1">
          <mxGeometry x="354" y="70" width="120" height="60" as="geometry" />
        </mxCell>
        <mxCell id="1nXdHdjy70m2k_z6gIux-6" style="edgeStyle=orthogonalEdgeStyle;rounded=0;orthogonalLoop=1;jettySize=auto;html=1;exitX=0.5;exitY=1;exitDx=0;exitDy=0;entryX=0.5;entryY=0;entryDx=0;entryDy=0;" edge="1" parent="1" source="1nXdHdjy70m2k_z6gIux-7" target="1nXdHdjy70m2k_z6gIux-9">
          <mxGeometry relative="1" as="geometry" />
        </mxCell>
        <mxCell id="1nXdHdjy70m2k_z6gIux-7" value="Dashboard selected" style="shape=parallelogram;perimeter=parallelogramPerimeter;whiteSpace=wrap;html=1;fixedSize=1;fillColor=#dae8fc;strokeColor=#6c8ebf;" vertex="1" parent="1">
          <mxGeometry x="336" y="170" width="156" height="60" as="geometry" />
        </mxCell>
        <mxCell id="1nXdHdjy70m2k_z6gIux-8" style="edgeStyle=orthogonalEdgeStyle;rounded=0;orthogonalLoop=1;jettySize=auto;html=1;exitX=0.5;exitY=1;exitDx=0;exitDy=0;entryX=0.5;entryY=0;entryDx=0;entryDy=0;" edge="1" parent="1" source="1nXdHdjy70m2k_z6gIux-9" target="LRHuOR1DZjUyWbYAnQyc-1">
          <mxGeometry relative="1" as="geometry" />
        </mxCell>
        <mxCell id="1nXdHdjy70m2k_z6gIux-9" value="&lt;p style=&quot;line-height: 100%; padding-right: 20px; padding-left: 20px;&quot;&gt;Display available points and membership ranks that is re-assignable&lt;/p&gt;" style="shape=parallelogram;perimeter=parallelogramPerimeter;whiteSpace=wrap;html=1;fixedSize=1;fillColor=#ffe6cc;strokeColor=#d79b00;" vertex="1" parent="1">
          <mxGeometry x="282" y="280" width="263" height="60" as="geometry" />
        </mxCell>
        <mxCell id="LRHuOR1DZjUyWbYAnQyc-1" value="END" style="ellipse;whiteSpace=wrap;html=1;aspect=fixed;fillColor=none;" vertex="1" parent="1">
          <mxGeometry x="384" y="380" width="60" height="60" as="geometry" />
        </mxCell>
        <mxCell id="APwx4Vj2Hjxpytl4ZENl-1" value="Legend" style="shape=table;startSize=30;container=1;collapsible=0;childLayout=tableLayout;fontSize=16;align=left;verticalAlign=top;fillColor=none;strokeColor=none;fontColor=#4D4D4D;fontStyle=1;spacingLeft=6;spacing=0;resizable=0;" vertex="1" parent="1">
          <mxGeometry x="620" y="40" width="180" height="180" as="geometry" />
        </mxCell>
        <mxCell id="APwx4Vj2Hjxpytl4ZENl-2" value="" style="shape=tableRow;horizontal=0;startSize=0;swimlaneHead=0;swimlaneBody=0;strokeColor=inherit;top=0;left=0;bottom=0;right=0;collapsible=0;dropTarget=0;fillColor=none;points=[[0,0.5],[1,0.5]];portConstraint=eastwest;fontSize=12;" vertex="1" parent="APwx4Vj2Hjxpytl4ZENl-1">
          <mxGeometry y="30" width="180" height="30" as="geometry" />
        </mxCell>
        <mxCell id="APwx4Vj2Hjxpytl4ZENl-3" value="Action by customer" style="shape=partialRectangle;html=1;whiteSpace=wrap;connectable=0;strokeColor=#82b366;overflow=hidden;fillColor=#d5e8d4;top=0;left=0;bottom=0;right=0;pointerEvents=1;fontSize=12;align=left;spacingLeft=10;spacingRight=4;" vertex="1" parent="APwx4Vj2Hjxpytl4ZENl-2">
          <mxGeometry width="180" height="30" as="geometry">
            <mxRectangle width="180" height="30" as="alternateBounds" />
          </mxGeometry>
        </mxCell>
        <mxCell id="APwx4Vj2Hjxpytl4ZENl-4" value="" style="shape=tableRow;horizontal=0;startSize=0;swimlaneHead=0;swimlaneBody=0;strokeColor=inherit;top=0;left=0;bottom=0;right=0;collapsible=0;dropTarget=0;fillColor=none;points=[[0,0.5],[1,0.5]];portConstraint=eastwest;fontSize=12;" vertex="1" parent="APwx4Vj2Hjxpytl4ZENl-1">
          <mxGeometry y="60" width="180" height="30" as="geometry" />
        </mxCell>
        <mxCell id="APwx4Vj2Hjxpytl4ZENl-5" value="Action by CCB" style="shape=partialRectangle;html=1;whiteSpace=wrap;connectable=0;strokeColor=#d6b656;overflow=hidden;fillColor=#fff2cc;top=0;left=0;bottom=0;right=0;pointerEvents=1;fontSize=12;align=left;spacingLeft=10;spacingRight=4;" vertex="1" parent="APwx4Vj2Hjxpytl4ZENl-4">
          <mxGeometry width="180" height="30" as="geometry">
            <mxRectangle width="180" height="30" as="alternateBounds" />
          </mxGeometry>
        </mxCell>
        <mxCell id="APwx4Vj2Hjxpytl4ZENl-6" value="" style="shape=tableRow;horizontal=0;startSize=0;swimlaneHead=0;swimlaneBody=0;strokeColor=#6c8ebf;top=0;left=0;bottom=0;right=0;collapsible=0;dropTarget=0;fillColor=#dae8fc;points=[[0,0.5],[1,0.5]];portConstraint=eastwest;fontSize=12;" vertex="1" parent="APwx4Vj2Hjxpytl4ZENl-1">
          <mxGeometry y="90" width="180" height="30" as="geometry" />
        </mxCell>
        <mxCell id="APwx4Vj2Hjxpytl4ZENl-7" value="Action by Corparate Admin on Privileges Portal" style="shape=partialRectangle;html=1;whiteSpace=wrap;connectable=0;strokeColor=#6c8ebf;overflow=hidden;fillColor=#dae8fc;top=0;left=0;bottom=0;right=0;pointerEvents=1;fontSize=12;align=left;spacingLeft=10;spacingRight=4;" vertex="1" parent="APwx4Vj2Hjxpytl4ZENl-6">
          <mxGeometry width="180" height="30" as="geometry">
            <mxRectangle width="180" height="30" as="alternateBounds" />
          </mxGeometry>
        </mxCell>
        <mxCell id="APwx4Vj2Hjxpytl4ZENl-8" value="" style="shape=tableRow;horizontal=0;startSize=0;swimlaneHead=0;swimlaneBody=0;strokeColor=inherit;top=0;left=0;bottom=0;right=0;collapsible=0;dropTarget=0;fillColor=none;points=[[0,0.5],[1,0.5]];portConstraint=eastwest;fontSize=12;" vertex="1" parent="APwx4Vj2Hjxpytl4ZENl-1">
          <mxGeometry y="120" width="180" height="30" as="geometry" />
        </mxCell>
        <mxCell id="APwx4Vj2Hjxpytl4ZENl-9" value="Action by CCB on Privileges Portal" style="shape=partialRectangle;html=1;whiteSpace=wrap;connectable=0;strokeColor=#b85450;overflow=hidden;fillColor=#f8cecc;top=0;left=0;bottom=0;right=0;pointerEvents=1;fontSize=12;align=left;spacingLeft=10;spacingRight=4;" vertex="1" parent="APwx4Vj2Hjxpytl4ZENl-8">
          <mxGeometry width="180" height="30" as="geometry">
            <mxRectangle width="180" height="30" as="alternateBounds" />
          </mxGeometry>
        </mxCell>
        <mxCell id="APwx4Vj2Hjxpytl4ZENl-10" value="" style="shape=tableRow;horizontal=0;startSize=0;swimlaneHead=0;swimlaneBody=0;strokeColor=inherit;top=0;left=0;bottom=0;right=0;collapsible=0;dropTarget=0;fillColor=none;points=[[0,0.5],[1,0.5]];portConstraint=eastwest;fontSize=12;" vertex="1" parent="APwx4Vj2Hjxpytl4ZENl-1">
          <mxGeometry y="150" width="180" height="30" as="geometry" />
        </mxCell>
        <mxCell id="APwx4Vj2Hjxpytl4ZENl-11" value="Automated process" style="shape=partialRectangle;html=1;whiteSpace=wrap;connectable=0;strokeColor=#d79b00;overflow=hidden;fillColor=#ffe6cc;top=0;left=0;bottom=0;right=0;pointerEvents=1;fontSize=12;align=left;spacingLeft=10;spacingRight=4;" vertex="1" parent="APwx4Vj2Hjxpytl4ZENl-10">
          <mxGeometry width="180" height="30" as="geometry">
            <mxRectangle width="180" height="30" as="alternateBounds" />
          </mxGeometry>
        </mxCell>
        <mxCell id="53vC-V3XANX2BA1Kc-9W-1" value="&lt;p style=&quot;line-height: 120%; padding-right: 10px; padding-left: 10px;&quot;&gt;Suspended and terminated users will add to the total re-assignable points, whereas only terminated users will add to the re-assignable membership ranks.&lt;/p&gt;" style="shape=note;whiteSpace=wrap;html=1;backgroundOutline=1;darkOpacity=0.05;" vertex="1" parent="1">
          <mxGeometry x="100" y="190" width="130" height="210" as="geometry" />
        </mxCell>
        <mxCell id="53vC-V3XANX2BA1Kc-9W-2" style="edgeStyle=orthogonalEdgeStyle;rounded=0;orthogonalLoop=1;jettySize=auto;html=1;exitX=0;exitY=0.5;exitDx=0;exitDy=0;entryX=0;entryY=0;entryDx=130;entryDy=120;entryPerimeter=0;" edge="1" parent="1" source="1nXdHdjy70m2k_z6gIux-9" target="53vC-V3XANX2BA1Kc-9W-1">
          <mxGeometry relative="1" as="geometry" />
        </mxCell>
      </root>
    </mxGraphModel>
  </diagram>
  <diagram id="J4WWK5kN7zVAwzT7lfLI" name="Points transfer flow">
    <mxGraphModel grid="1" page="1" gridSize="10" guides="1" tooltips="1" connect="1" arrows="1" fold="1" pageScale="1" pageWidth="827" pageHeight="1169" math="0" shadow="0">
      <root>
        <mxCell id="0" />
        <mxCell id="1" parent="0" />
        <mxCell id="nqmEX36tmg1xzW4VqN5d-1" value="Transfer Points" style="text;html=1;align=center;verticalAlign=middle;whiteSpace=wrap;rounded=0;" vertex="1" parent="1">
          <mxGeometry x="349" y="20" width="130" height="30" as="geometry" />
        </mxCell>
        <mxCell id="nqmEX36tmg1xzW4VqN5d-5" value="Transfer Points" style="rounded=1;whiteSpace=wrap;html=1;fillColor=#dae8fc;strokeColor=#6c8ebf;" vertex="1" parent="1">
          <mxGeometry x="354" y="80" width="120" height="60" as="geometry" />
        </mxCell>
        <mxCell id="nqmEX36tmg1xzW4VqN5d-14" style="edgeStyle=orthogonalEdgeStyle;rounded=0;orthogonalLoop=1;jettySize=auto;html=1;exitX=0.5;exitY=1;exitDx=0;exitDy=0;entryX=0.5;entryY=0;entryDx=0;entryDy=0;" edge="1" parent="1" source="nqmEX36tmg1xzW4VqN5d-5" target="zeeeFaT-ZjsQaGNgAo1t-1">
          <mxGeometry relative="1" as="geometry">
            <mxPoint x="414" y="400" as="targetPoint" />
          </mxGeometry>
        </mxCell>
        <mxCell id="nqmEX36tmg1xzW4VqN5d-16" style="edgeStyle=orthogonalEdgeStyle;rounded=0;orthogonalLoop=1;jettySize=auto;html=1;exitX=0;exitY=0.5;exitDx=0;exitDy=0;entryX=0.5;entryY=0;entryDx=0;entryDy=0;" edge="1" parent="1" source="zeeeFaT-ZjsQaGNgAo1t-1" target="IGV2KyBGgXNQ7h9Ugdvp-1">
          <mxGeometry relative="1" as="geometry">
            <mxPoint x="349" y="555" as="sourcePoint" />
          </mxGeometry>
        </mxCell>
        <mxCell id="zeeeFaT-ZjsQaGNgAo1t-2" value="YES" style="edgeLabel;html=1;align=center;verticalAlign=middle;resizable=0;points=[];" connectable="0" vertex="1" parent="nqmEX36tmg1xzW4VqN5d-16">
          <mxGeometry x="-0.5446" y="3" relative="1" as="geometry">
            <mxPoint x="13" y="-3" as="offset" />
          </mxGeometry>
        </mxCell>
        <mxCell id="nqmEX36tmg1xzW4VqN5d-17" style="edgeStyle=orthogonalEdgeStyle;rounded=0;orthogonalLoop=1;jettySize=auto;html=1;exitX=1;exitY=0.5;exitDx=0;exitDy=0;entryX=0.5;entryY=0;entryDx=0;entryDy=0;" edge="1" parent="1" source="zeeeFaT-ZjsQaGNgAo1t-1" target="3s7Y7tPDSaOhQ1_IaIr0-2">
          <mxGeometry relative="1" as="geometry">
            <mxPoint x="479" y="555" as="sourcePoint" />
          </mxGeometry>
        </mxCell>
        <mxCell id="3s7Y7tPDSaOhQ1_IaIr0-4" value="NO" style="edgeLabel;html=1;align=center;verticalAlign=middle;resizable=0;points=[];" connectable="0" vertex="1" parent="nqmEX36tmg1xzW4VqN5d-17">
          <mxGeometry x="-0.4336" y="1" relative="1" as="geometry">
            <mxPoint y="1" as="offset" />
          </mxGeometry>
        </mxCell>
        <mxCell id="nqmEX36tmg1xzW4VqN5d-19" style="edgeStyle=orthogonalEdgeStyle;rounded=0;orthogonalLoop=1;jettySize=auto;html=1;exitX=0.5;exitY=1;exitDx=0;exitDy=0;entryX=0;entryY=0.5;entryDx=0;entryDy=0;" edge="1" parent="1" source="nqmEX36tmg1xzW4VqN5d-20" target="_M3sLIYsg9kJ4E75_RI_-1">
          <mxGeometry relative="1" as="geometry">
            <mxPoint x="170" y="700" as="targetPoint" />
          </mxGeometry>
        </mxCell>
        <mxCell id="nqmEX36tmg1xzW4VqN5d-20" value="Transfer points to target user" style="rounded=1;whiteSpace=wrap;html=1;fillColor=#ffe6cc;strokeColor=#d79b00;" vertex="1" parent="1">
          <mxGeometry x="150" y="430" width="120" height="60" as="geometry" />
        </mxCell>
        <mxCell id="3s7Y7tPDSaOhQ1_IaIr0-1" style="edgeStyle=orthogonalEdgeStyle;rounded=0;orthogonalLoop=1;jettySize=auto;html=1;exitX=0.5;exitY=1;exitDx=0;exitDy=0;entryX=1;entryY=0.5;entryDx=0;entryDy=0;" edge="1" parent="1" source="3s7Y7tPDSaOhQ1_IaIr0-2" target="_M3sLIYsg9kJ4E75_RI_-1">
          <mxGeometry relative="1" as="geometry" />
        </mxCell>
        <mxCell id="_M3sLIYsg9kJ4E75_RI_-1" value="END" style="ellipse;whiteSpace=wrap;html=1;aspect=fixed;fillColor=none;" vertex="1" parent="1">
          <mxGeometry x="384" y="520" width="60" height="60" as="geometry" />
        </mxCell>
        <mxCell id="zeeeFaT-ZjsQaGNgAo1t-1" value="Points sufficient?" style="rhombus;whiteSpace=wrap;html=1;strokeWidth=1;fillWeight=-1;hachureGap=8;fillStyle=solid;fillColor=none;rounded=0;shadow=0;" vertex="1" parent="1">
          <mxGeometry x="354" y="210" width="120" height="60" as="geometry" />
        </mxCell>
        <mxCell id="PplGFiLrPhVraWiiPLQV-1" value="Legend" style="shape=table;startSize=30;container=1;collapsible=0;childLayout=tableLayout;fontSize=16;align=left;verticalAlign=top;fillColor=none;strokeColor=none;fontColor=#4D4D4D;fontStyle=1;spacingLeft=6;spacing=0;resizable=0;" vertex="1" parent="1">
          <mxGeometry x="620" y="40" width="180" height="180" as="geometry" />
        </mxCell>
        <mxCell id="PplGFiLrPhVraWiiPLQV-2" value="" style="shape=tableRow;horizontal=0;startSize=0;swimlaneHead=0;swimlaneBody=0;strokeColor=inherit;top=0;left=0;bottom=0;right=0;collapsible=0;dropTarget=0;fillColor=none;points=[[0,0.5],[1,0.5]];portConstraint=eastwest;fontSize=12;" vertex="1" parent="PplGFiLrPhVraWiiPLQV-1">
          <mxGeometry y="30" width="180" height="30" as="geometry" />
        </mxCell>
        <mxCell id="PplGFiLrPhVraWiiPLQV-3" value="Action by customer" style="shape=partialRectangle;html=1;whiteSpace=wrap;connectable=0;strokeColor=#82b366;overflow=hidden;fillColor=#d5e8d4;top=0;left=0;bottom=0;right=0;pointerEvents=1;fontSize=12;align=left;spacingLeft=10;spacingRight=4;" vertex="1" parent="PplGFiLrPhVraWiiPLQV-2">
          <mxGeometry width="180" height="30" as="geometry">
            <mxRectangle width="180" height="30" as="alternateBounds" />
          </mxGeometry>
        </mxCell>
        <mxCell id="PplGFiLrPhVraWiiPLQV-4" value="" style="shape=tableRow;horizontal=0;startSize=0;swimlaneHead=0;swimlaneBody=0;strokeColor=inherit;top=0;left=0;bottom=0;right=0;collapsible=0;dropTarget=0;fillColor=none;points=[[0,0.5],[1,0.5]];portConstraint=eastwest;fontSize=12;" vertex="1" parent="PplGFiLrPhVraWiiPLQV-1">
          <mxGeometry y="60" width="180" height="30" as="geometry" />
        </mxCell>
        <mxCell id="PplGFiLrPhVraWiiPLQV-5" value="Action by CCB" style="shape=partialRectangle;html=1;whiteSpace=wrap;connectable=0;strokeColor=#d6b656;overflow=hidden;fillColor=#fff2cc;top=0;left=0;bottom=0;right=0;pointerEvents=1;fontSize=12;align=left;spacingLeft=10;spacingRight=4;" vertex="1" parent="PplGFiLrPhVraWiiPLQV-4">
          <mxGeometry width="180" height="30" as="geometry">
            <mxRectangle width="180" height="30" as="alternateBounds" />
          </mxGeometry>
        </mxCell>
        <mxCell id="PplGFiLrPhVraWiiPLQV-6" value="" style="shape=tableRow;horizontal=0;startSize=0;swimlaneHead=0;swimlaneBody=0;strokeColor=#6c8ebf;top=0;left=0;bottom=0;right=0;collapsible=0;dropTarget=0;fillColor=#dae8fc;points=[[0,0.5],[1,0.5]];portConstraint=eastwest;fontSize=12;" vertex="1" parent="PplGFiLrPhVraWiiPLQV-1">
          <mxGeometry y="90" width="180" height="30" as="geometry" />
        </mxCell>
        <mxCell id="PplGFiLrPhVraWiiPLQV-7" value="Action by Corparate Admin on Privileges Portal" style="shape=partialRectangle;html=1;whiteSpace=wrap;connectable=0;strokeColor=#6c8ebf;overflow=hidden;fillColor=#dae8fc;top=0;left=0;bottom=0;right=0;pointerEvents=1;fontSize=12;align=left;spacingLeft=10;spacingRight=4;" vertex="1" parent="PplGFiLrPhVraWiiPLQV-6">
          <mxGeometry width="180" height="30" as="geometry">
            <mxRectangle width="180" height="30" as="alternateBounds" />
          </mxGeometry>
        </mxCell>
        <mxCell id="PplGFiLrPhVraWiiPLQV-8" value="" style="shape=tableRow;horizontal=0;startSize=0;swimlaneHead=0;swimlaneBody=0;strokeColor=inherit;top=0;left=0;bottom=0;right=0;collapsible=0;dropTarget=0;fillColor=none;points=[[0,0.5],[1,0.5]];portConstraint=eastwest;fontSize=12;" vertex="1" parent="PplGFiLrPhVraWiiPLQV-1">
          <mxGeometry y="120" width="180" height="30" as="geometry" />
        </mxCell>
        <mxCell id="PplGFiLrPhVraWiiPLQV-9" value="Action by CCB on Privileges Portal" style="shape=partialRectangle;html=1;whiteSpace=wrap;connectable=0;strokeColor=#b85450;overflow=hidden;fillColor=#f8cecc;top=0;left=0;bottom=0;right=0;pointerEvents=1;fontSize=12;align=left;spacingLeft=10;spacingRight=4;" vertex="1" parent="PplGFiLrPhVraWiiPLQV-8">
          <mxGeometry width="180" height="30" as="geometry">
            <mxRectangle width="180" height="30" as="alternateBounds" />
          </mxGeometry>
        </mxCell>
        <mxCell id="PplGFiLrPhVraWiiPLQV-10" value="" style="shape=tableRow;horizontal=0;startSize=0;swimlaneHead=0;swimlaneBody=0;strokeColor=inherit;top=0;left=0;bottom=0;right=0;collapsible=0;dropTarget=0;fillColor=none;points=[[0,0.5],[1,0.5]];portConstraint=eastwest;fontSize=12;" vertex="1" parent="PplGFiLrPhVraWiiPLQV-1">
          <mxGeometry y="150" width="180" height="30" as="geometry" />
        </mxCell>
        <mxCell id="PplGFiLrPhVraWiiPLQV-11" value="Automated process" style="shape=partialRectangle;html=1;whiteSpace=wrap;connectable=0;strokeColor=#d79b00;overflow=hidden;fillColor=#ffe6cc;top=0;left=0;bottom=0;right=0;pointerEvents=1;fontSize=12;align=left;spacingLeft=10;spacingRight=4;" vertex="1" parent="PplGFiLrPhVraWiiPLQV-10">
          <mxGeometry width="180" height="30" as="geometry">
            <mxRectangle width="180" height="30" as="alternateBounds" />
          </mxGeometry>
        </mxCell>
        <mxCell id="3s7Y7tPDSaOhQ1_IaIr0-2" value="Prompt transaction error" style="rounded=1;whiteSpace=wrap;html=1;fillColor=#ffe6cc;strokeColor=#d79b00;" vertex="1" parent="1">
          <mxGeometry x="540" y="320" width="120" height="60" as="geometry" />
        </mxCell>
        <mxCell id="IGV2KyBGgXNQ7h9Ugdvp-2" style="edgeStyle=orthogonalEdgeStyle;rounded=0;orthogonalLoop=1;jettySize=auto;html=1;entryX=0.5;entryY=0;entryDx=0;entryDy=0;" edge="1" parent="1" source="IGV2KyBGgXNQ7h9Ugdvp-1" target="_M3sLIYsg9kJ4E75_RI_-1">
          <mxGeometry relative="1" as="geometry" />
        </mxCell>
        <mxCell id="IGV2KyBGgXNQ7h9Ugdvp-3" value="NO" style="edgeLabel;html=1;align=center;verticalAlign=middle;resizable=0;points=[];" connectable="0" vertex="1" parent="IGV2KyBGgXNQ7h9Ugdvp-2">
          <mxGeometry x="-0.7469" relative="1" as="geometry">
            <mxPoint as="offset" />
          </mxGeometry>
        </mxCell>
        <mxCell id="IGV2KyBGgXNQ7h9Ugdvp-4" style="edgeStyle=orthogonalEdgeStyle;rounded=0;orthogonalLoop=1;jettySize=auto;html=1;entryX=0.5;entryY=0;entryDx=0;entryDy=0;" edge="1" parent="1" source="IGV2KyBGgXNQ7h9Ugdvp-1" target="nqmEX36tmg1xzW4VqN5d-20">
          <mxGeometry relative="1" as="geometry" />
        </mxCell>
        <mxCell id="IGV2KyBGgXNQ7h9Ugdvp-5" value="YES" style="edgeLabel;html=1;align=center;verticalAlign=middle;resizable=0;points=[];" connectable="0" vertex="1" parent="IGV2KyBGgXNQ7h9Ugdvp-4">
          <mxGeometry x="-0.24" y="1" relative="1" as="geometry">
            <mxPoint as="offset" />
          </mxGeometry>
        </mxCell>
        <mxCell id="IGV2KyBGgXNQ7h9Ugdvp-1" value="Confirm Transfer? Insufficient will result in downgrade" style="rhombus;whiteSpace=wrap;html=1;strokeWidth=1;fillWeight=-1;hachureGap=8;fillStyle=solid;fillColor=none;rounded=0;shadow=0;" vertex="1" parent="1">
          <mxGeometry x="135" y="270" width="150" height="110" as="geometry" />
        </mxCell>
      </root>
    </mxGraphModel>
  </diagram>
  <diagram id="0Xow6LfAz42XsAOBVVug" name="Update user status flow">
    <mxGraphModel grid="1" page="1" gridSize="10" guides="1" tooltips="1" connect="1" arrows="1" fold="1" pageScale="1" pageWidth="827" pageHeight="1169" math="0" shadow="0">
      <root>
        <mxCell id="0" />
        <mxCell id="1" parent="0" />
        <mxCell id="GIBd1snHx0K0pMro5JLl-3" value="Set user status" style="text;html=1;align=center;verticalAlign=middle;whiteSpace=wrap;rounded=0;" vertex="1" parent="1">
          <mxGeometry x="349" y="20" width="129" height="30" as="geometry" />
        </mxCell>
        <mxCell id="GIBd1snHx0K0pMro5JLl-6" style="edgeStyle=orthogonalEdgeStyle;rounded=0;orthogonalLoop=1;jettySize=auto;html=1;exitX=0.5;exitY=1;exitDx=0;exitDy=0;entryX=0.5;entryY=0;entryDx=0;entryDy=0;" edge="1" parent="1" source="GIBd1snHx0K0pMro5JLl-7" target="GIBd1snHx0K0pMro5JLl-11">
          <mxGeometry relative="1" as="geometry">
            <mxPoint x="404" y="180" as="targetPoint" />
          </mxGeometry>
        </mxCell>
        <mxCell id="GIBd1snHx0K0pMro5JLl-7" value="User &amp;gt; Set status" style="rounded=1;whiteSpace=wrap;html=1;fillColor=#dae8fc;strokeColor=#6c8ebf;" vertex="1" parent="1">
          <mxGeometry x="344" y="70" width="120" height="60" as="geometry" />
        </mxCell>
        <mxCell id="GIBd1snHx0K0pMro5JLl-10" style="edgeStyle=orthogonalEdgeStyle;rounded=0;orthogonalLoop=1;jettySize=auto;html=1;exitX=0.5;exitY=1;exitDx=0;exitDy=0;entryX=0.5;entryY=0;entryDx=0;entryDy=0;" edge="1" parent="1" source="GIBd1snHx0K0pMro5JLl-11" target="ydh6qH-bAgu0CVOiNZ5y-1">
          <mxGeometry relative="1" as="geometry">
            <mxPoint x="404" y="300" as="targetPoint" />
          </mxGeometry>
        </mxCell>
        <mxCell id="zmbjQJJ2Rob_lSp4TGTi-16" value="" style="edgeStyle=orthogonalEdgeStyle;rounded=0;orthogonalLoop=1;jettySize=auto;html=1;entryX=0.985;entryY=0.5;entryDx=0;entryDy=0;entryPerimeter=0;" edge="1" parent="1" source="GIBd1snHx0K0pMro5JLl-11" target="zmbjQJJ2Rob_lSp4TGTi-17">
          <mxGeometry relative="1" as="geometry">
            <mxPoint x="108" y="220" as="targetPoint" />
          </mxGeometry>
        </mxCell>
        <mxCell id="GIBd1snHx0K0pMro5JLl-11" value="Administrator selects a status option" style="shape=parallelogram;perimeter=parallelogramPerimeter;whiteSpace=wrap;html=1;fixedSize=1;fillColor=#dae8fc;strokeColor=#6c8ebf;" vertex="1" parent="1">
          <mxGeometry x="266" y="190" width="276" height="60" as="geometry" />
        </mxCell>
        <mxCell id="GIBd1snHx0K0pMro5JLl-12" style="edgeStyle=orthogonalEdgeStyle;rounded=0;orthogonalLoop=1;jettySize=auto;html=1;exitX=0;exitY=0.5;exitDx=0;exitDy=0;entryX=0.5;entryY=0;entryDx=0;entryDy=0;" edge="1" parent="1" source="ydh6qH-bAgu0CVOiNZ5y-1" target="GIBd1snHx0K0pMro5JLl-16">
          <mxGeometry relative="1" as="geometry">
            <mxPoint x="344" y="360" as="sourcePoint" />
          </mxGeometry>
        </mxCell>
        <mxCell id="GIBd1snHx0K0pMro5JLl-13" style="edgeStyle=orthogonalEdgeStyle;rounded=0;orthogonalLoop=1;jettySize=auto;html=1;exitX=0.5;exitY=1;exitDx=0;exitDy=0;entryX=1;entryY=0.5;entryDx=0;entryDy=0;" edge="1" parent="1" source="ydh6qH-bAgu0CVOiNZ5y-1" target="GIBd1snHx0K0pMro5JLl-19">
          <mxGeometry relative="1" as="geometry">
            <Array as="points">
              <mxPoint x="404" y="388" />
              <mxPoint x="404" y="560" />
            </Array>
            <mxPoint x="404" y="420" as="sourcePoint" />
          </mxGeometry>
        </mxCell>
        <mxCell id="GIBd1snHx0K0pMro5JLl-15" style="edgeStyle=orthogonalEdgeStyle;rounded=0;orthogonalLoop=1;jettySize=auto;html=1;exitX=0.5;exitY=1;exitDx=0;exitDy=0;entryX=0.5;entryY=0;entryDx=0;entryDy=0;" edge="1" parent="1" source="GIBd1snHx0K0pMro5JLl-16" target="GIBd1snHx0K0pMro5JLl-19">
          <mxGeometry relative="1" as="geometry" />
        </mxCell>
        <mxCell id="GIBd1snHx0K0pMro5JLl-16" value="Set user status to new status" style="rounded=1;whiteSpace=wrap;html=1;fillColor=#ffe6cc;strokeColor=#d79b00;" vertex="1" parent="1">
          <mxGeometry x="93" y="430" width="120" height="60" as="geometry" />
        </mxCell>
        <mxCell id="GIBd1snHx0K0pMro5JLl-17" value="true" style="text;html=1;align=center;verticalAlign=middle;resizable=0;points=[];autosize=1;strokeColor=none;fillColor=none;" vertex="1" parent="1">
          <mxGeometry x="230" y="328" width="40" height="30" as="geometry" />
        </mxCell>
        <mxCell id="GIBd1snHx0K0pMro5JLl-18" style="edgeStyle=orthogonalEdgeStyle;rounded=0;orthogonalLoop=1;jettySize=auto;html=1;exitX=0.5;exitY=1;exitDx=0;exitDy=0;entryX=0.5;entryY=0;entryDx=0;entryDy=0;" edge="1" parent="1" source="GIBd1snHx0K0pMro5JLl-19" target="fJk2b42XoBd568uYmJZ_-1">
          <mxGeometry relative="1" as="geometry" />
        </mxCell>
        <mxCell id="GIBd1snHx0K0pMro5JLl-19" value="&lt;p style=&quot;line-height: 100%; padding-top: 0px; padding-right: 20px; padding-left: 20px;&quot;&gt;Prompt successful status update&lt;/p&gt;" style="shape=parallelogram;perimeter=parallelogramPerimeter;whiteSpace=wrap;html=1;fixedSize=1;fillColor=#ffe6cc;strokeColor=#d79b00;" vertex="1" parent="1">
          <mxGeometry x="74.5" y="530" width="157" height="60" as="geometry" />
        </mxCell>
        <mxCell id="GIBd1snHx0K0pMro5JLl-21" value="false" style="text;html=1;align=center;verticalAlign=middle;resizable=0;points=[];autosize=1;strokeColor=none;fillColor=none;" vertex="1" parent="1">
          <mxGeometry x="395" y="478" width="50" height="30" as="geometry" />
        </mxCell>
        <mxCell id="fJk2b42XoBd568uYmJZ_-1" value="END" style="ellipse;whiteSpace=wrap;html=1;aspect=fixed;fillColor=none;" vertex="1" parent="1">
          <mxGeometry x="123" y="630" width="60" height="60" as="geometry" />
        </mxCell>
        <mxCell id="ydh6qH-bAgu0CVOiNZ5y-1" value="Status is new?" style="rhombus;whiteSpace=wrap;html=1;strokeWidth=1;fillWeight=-1;hachureGap=8;fillStyle=solid;fillColor=none;rounded=0;shadow=0;" vertex="1" parent="1">
          <mxGeometry x="344" y="328" width="120" height="60" as="geometry" />
        </mxCell>
        <mxCell id="zmbjQJJ2Rob_lSp4TGTi-17" value="Display pop-up with drop-down list of statuses:&lt;div&gt;- Active&lt;/div&gt;&lt;div&gt;- Inactive&lt;/div&gt;&lt;div&gt;- Suspended&lt;/div&gt;&lt;div&gt;- Pending&lt;/div&gt;&lt;div&gt;- Terminated&lt;/div&gt;" style="shape=note;whiteSpace=wrap;html=1;backgroundOutline=1;darkOpacity=0.05;" vertex="1" parent="1">
          <mxGeometry x="20" y="125" width="110" height="190" as="geometry" />
        </mxCell>
      </root>
    </mxGraphModel>
  </diagram>
</mxfile>
